<svg version="1.0" preserveAspectRatio="xMidYMid meet" viewBox="32.25 173.99999582400002 288 75.74999818200001" zoomAndPan="magnify" xmlns:xlink="http://www.w3.org/1999/xlink" xmlns="http://www.w3.org/2000/svg" style="max-height: 500px" width="288" height="75.74999818200001"><defs><g/><clipPath id="994c294e10"><path clip-rule="nonzero" d="M 100.492188 175.046875 L 130.492188 175.046875 L 130.492188 232 L 100.492188 232 Z M 100.492188 175.046875"/></clipPath></defs><g clip-path="url(#994c294e10)"><path fill-rule="nonzero" fill-opacity="1" d="M 130.261719 227.734375 C 130.257812 227.71875 130.265625 227.707031 130.261719 227.691406 L 126.109375 197.566406 C 126.109375 197.566406 126.109375 197.5625 126.109375 197.5625 C 126.046875 196.085938 124.304688 194.832031 121.292969 194.085938 L 121.292969 177.152344 C 121.292969 175.5 117.605469 175.058594 115.425781 175.058594 C 113.25 175.058594 109.5625 175.5 109.5625 177.152344 L 109.5625 194.085938 C 106.546875 194.832031 104.808594 196.085938 104.746094 197.5625 C 104.746094 197.566406 104.746094 197.566406 104.746094 197.566406 L 100.589844 227.691406 C 100.589844 227.703125 100.59375 227.710938 100.59375 227.722656 C 100.589844 227.738281 100.582031 227.753906 100.582031 227.769531 C 100.582031 230.492188 108.050781 231.914062 115.425781 231.914062 C 122.800781 231.914062 130.265625 230.488281 130.265625 227.769531 C 130.265625 227.757812 130.261719 227.746094 130.261719 227.734375 Z M 124.957031 197.644531 C 124.957031 198.980469 121.464844 200.460938 116.621094 200.675781 L 116.621094 198.796875 C 118.734375 198.65625 121.300781 198.125 121.300781 196.746094 C 121.300781 196.707031 121.285156 196.671875 121.277344 196.636719 C 121.28125 196.609375 121.292969 196.585938 121.292969 196.558594 L 121.292969 195.289062 C 123.804688 195.960938 124.957031 196.929688 124.957031 197.644531 Z M 116.449219 222.515625 L 116.429688 222.515625 C 116.429688 222.492188 116.4375 222.476562 116.441406 222.460938 Z M 115.785156 216.050781 L 116.4375 222.40625 C 116.335938 222.476562 116 222.601562 115.417969 222.601562 C 114.863281 222.601562 114.535156 222.488281 114.417969 222.417969 L 115.074219 216.007812 C 115.074219 215.996094 115.070312 215.984375 115.070312 215.96875 C 115.074219 215.941406 115.085938 215.914062 115.085938 215.882812 L 115.085938 201.855469 C 115.199219 201.859375 115.3125 201.863281 115.425781 201.863281 C 115.535156 201.863281 115.644531 201.859375 115.75 201.855469 L 115.75 215.886719 C 115.75 215.945312 115.765625 216 115.785156 216.050781 Z M 115.425781 200.703125 C 115.3125 200.703125 115.199219 200.699219 115.085938 200.695312 L 115.085938 198.832031 C 115.207031 198.835938 115.324219 198.835938 115.4375 198.835938 C 115.539062 198.835938 115.644531 198.835938 115.75 198.832031 L 115.75 200.699219 C 115.644531 200.699219 115.539062 200.703125 115.425781 200.703125 Z M 110.71875 178.480469 C 111.984375 179.054688 114.019531 179.242188 115.425781 179.242188 C 116.835938 179.242188 118.867188 179.054688 120.136719 178.480469 L 120.136719 196.558594 C 120.136719 196.59375 120.148438 196.625 120.15625 196.65625 C 120.152344 196.675781 120.140625 196.695312 120.140625 196.714844 C 119.960938 197.007812 118.410156 197.675781 115.4375 197.675781 C 112.460938 197.675781 110.910156 197.007812 110.730469 196.714844 C 110.730469 196.699219 110.722656 196.683594 110.71875 196.667969 Z M 115.425781 176.21875 C 118.304688 176.21875 119.851562 176.84375 120.113281 177.152344 C 119.851562 177.457031 118.304688 178.085938 115.425781 178.085938 C 112.550781 178.085938 111 177.457031 110.742188 177.152344 C 111 176.84375 112.550781 176.21875 115.425781 176.21875 Z M 109.5625 195.289062 L 109.5625 196.925781 C 109.5625 197.109375 109.652344 197.265625 109.785156 197.371094 C 110.429688 198.285156 112.46875 198.675781 114.214844 198.792969 L 114.214844 200.675781 C 109.382812 200.457031 105.898438 198.980469 105.898438 197.644531 C 105.898438 196.929688 107.050781 195.960938 109.5625 195.289062 Z M 115.425781 230.757812 C 107.117188 230.757812 101.800781 229.003906 101.746094 227.785156 L 105.65625 199.4375 C 107.25 200.859375 110.703125 201.679688 114.214844 201.832031 L 114.214844 215.886719 C 114.214844 215.886719 114.21875 215.890625 114.21875 215.890625 C 114.214844 215.902344 114.210938 215.910156 114.207031 215.921875 L 113.539062 222.472656 C 113.535156 222.488281 113.542969 222.5 113.542969 222.515625 L 113.535156 222.515625 C 113.535156 222.542969 113.546875 222.566406 113.550781 222.589844 C 113.554688 222.613281 113.554688 222.636719 113.5625 222.65625 C 113.691406 223.253906 114.613281 223.472656 115.417969 223.472656 C 116.199219 223.472656 117.09375 223.269531 117.265625 222.710938 C 117.300781 222.640625 117.324219 222.558594 117.316406 222.472656 L 116.648438 215.921875 C 116.644531 215.894531 116.628906 215.871094 116.621094 215.84375 L 116.621094 201.835938 C 120.140625 201.683594 123.601562 200.863281 125.199219 199.4375 L 129.105469 227.777344 C 129.082031 228.996094 123.757812 230.757812 115.425781 230.757812 Z M 115.425781 230.757812" fill="#3d3b3a"/></g><path fill-rule="nonzero" fill-opacity="1" d="M 112.171875 194.347656 C 112.410156 194.347656 112.605469 194.152344 112.605469 193.914062 L 112.605469 181.972656 C 112.605469 181.734375 112.410156 181.539062 112.171875 181.539062 C 111.929688 181.539062 111.734375 181.734375 111.734375 181.972656 L 111.734375 193.914062 C 111.734375 194.152344 111.929688 194.347656 112.171875 194.347656 Z M 112.171875 194.347656" fill="#3d3b3a"/><g fill-opacity="1" fill="#3d3b3a"><g transform="translate(37.60873, 231.042011)"><g><path d="M -0.375 0.046875 C -0.625 0.015625 -0.75 -0.125 -0.75 -0.375 C -0.75 -0.625 -0.625 -0.785156 -0.375 -0.859375 L 1.609375 -0.859375 C 2.492188 -0.859375 3.097656 -1.410156 3.421875 -2.515625 L 14.171875 -38.375 C 14.304688 -38.84375 14.570312 -39.078125 14.96875 -39.078125 C 15.320312 -39.078125 15.570312 -38.84375 15.71875 -38.375 L 26.734375 -1.28125 C 26.835938 -1 26.992188 -0.859375 27.203125 -0.859375 L 29.875 -0.859375 C 30.09375 -0.742188 30.203125 -0.582031 30.203125 -0.375 C 30.203125 -0.125 30.09375 0.015625 29.875 0.046875 L 23.84375 -0.046875 L 16.40625 0.046875 C 16.15625 -0.015625 16.03125 -0.15625 16.03125 -0.375 C 16.03125 -0.582031 16.15625 -0.742188 16.40625 -0.859375 L 20.578125 -0.859375 C 20.796875 -0.859375 20.90625 -0.960938 20.90625 -1.171875 C 20.90625 -1.242188 20.867188 -1.429688 20.796875 -1.734375 C 20.722656 -2.035156 20.648438 -2.273438 20.578125 -2.453125 L 17.265625 -14.109375 L 7.90625 -14.109375 L 4.703125 -3.421875 C 4.628906 -3.140625 4.554688 -2.890625 4.484375 -2.671875 C 4.421875 -2.460938 4.390625 -2.265625 4.390625 -2.078125 C 4.390625 -1.722656 4.507812 -1.429688 4.75 -1.203125 C 5 -0.972656 5.304688 -0.859375 5.671875 -0.859375 L 8.71875 -0.859375 C 8.96875 -0.742188 9.09375 -0.582031 9.09375 -0.375 C 9.09375 -0.125 8.96875 0.015625 8.71875 0.046875 L 3.6875 -0.046875 Z M 17 -15.015625 L 12.671875 -30.140625 L 8.171875 -15.015625 Z M 17 -15.015625"/></g></g></g><g fill-opacity="1" fill="#3d3b3a"><g transform="translate(69.571831, 231.042011)"><g><path d="M 2.140625 0.046875 C 1.921875 0.015625 1.8125 -0.125 1.8125 -0.375 C 1.8125 -0.625 1.921875 -0.785156 2.140625 -0.859375 L 5.125 -0.859375 C 5.519531 -0.859375 5.847656 -1.035156 6.109375 -1.390625 C 6.378906 -1.742188 6.515625 -2.171875 6.515625 -2.671875 L 6.515625 -33.40625 C 6.515625 -34.65625 6.273438 -35.6875 5.796875 -36.5 C 5.316406 -37.320312 4.722656 -37.734375 4.015625 -37.734375 L 1.28125 -37.734375 C 1.070312 -37.804688 0.96875 -37.953125 0.96875 -38.171875 C 0.96875 -38.421875 1.070312 -38.578125 1.28125 -38.640625 L 7.640625 -38.546875 L 10.109375 -38.640625 C 10.390625 -38.640625 10.628906 -38.550781 10.828125 -38.375 C 11.023438 -38.195312 11.191406 -37.984375 11.328125 -37.734375 L 27.046875 -10.796875 C 27.222656 -10.515625 27.421875 -10.375 27.640625 -10.375 C 27.890625 -10.375 28.015625 -10.550781 28.015625 -10.90625 L 28.015625 -35.859375 C 28.015625 -36.398438 27.867188 -36.847656 27.578125 -37.203125 C 27.296875 -37.554688 26.957031 -37.734375 26.5625 -37.734375 L 23.03125 -37.734375 C 22.820312 -37.804688 22.71875 -37.953125 22.71875 -38.171875 C 22.71875 -38.421875 22.820312 -38.578125 23.03125 -38.640625 L 28.546875 -38.546875 L 33.359375 -38.640625 C 33.609375 -38.535156 33.734375 -38.378906 33.734375 -38.171875 C 33.734375 -37.984375 33.609375 -37.835938 33.359375 -37.734375 L 30.421875 -37.734375 C 30.023438 -37.734375 29.691406 -37.554688 29.421875 -37.203125 C 29.160156 -36.847656 29.03125 -36.398438 29.03125 -35.859375 L 29.03125 -0.328125 C 29.03125 0.285156 28.796875 0.59375 28.328125 0.59375 C 27.972656 0.59375 27.597656 0.320312 27.203125 -0.21875 L 8.390625 -32.171875 C 8.285156 -32.390625 8.125 -32.5 7.90625 -32.5 C 7.65625 -32.5 7.53125 -32.320312 7.53125 -31.96875 L 7.53125 -2.671875 C 7.53125 -2.171875 7.664062 -1.742188 7.9375 -1.390625 C 8.207031 -1.035156 8.535156 -0.859375 8.921875 -0.859375 L 12.453125 -0.859375 C 12.703125 -0.785156 12.828125 -0.625 12.828125 -0.375 C 12.828125 -0.125 12.703125 0.015625 12.453125 0.046875 L 7.0625 -0.046875 Z M 2.140625 0.046875"/></g></g></g><g fill-opacity="1" fill="#3d3b3a"><g transform="translate(106.350913, 231.042011)"><g/></g></g><g fill-opacity="1" fill="#3d3b3a"><g transform="translate(120.568853, 231.042011)"><g/></g></g><g fill-opacity="1" fill="#3d3b3a"><g transform="translate(134.792321, 231.042011)"><g><path d="M 3.203125 -13.3125 C 3.242188 -13.5625 3.390625 -13.6875 3.640625 -13.6875 C 3.890625 -13.6875 4.03125 -13.5625 4.0625 -13.3125 L 4.171875 -11.171875 C 4.273438 -9.359375 4.707031 -7.59375 5.46875 -5.875 C 6.238281 -4.164062 7.335938 -2.765625 8.765625 -1.671875 C 10.191406 -0.585938 11.898438 -0.046875 13.890625 -0.046875 C 16.210938 -0.046875 17.96875 -0.820312 19.15625 -2.375 C 20.351562 -3.925781 20.953125 -5.914062 20.953125 -8.34375 C 20.953125 -10.195312 20.539062 -11.640625 19.71875 -12.671875 C 18.90625 -13.703125 17.710938 -14.59375 16.140625 -15.34375 L 10.578125 -17.90625 C 8.046875 -19.113281 6.21875 -20.617188 5.09375 -22.421875 C 3.976562 -24.222656 3.421875 -26.316406 3.421875 -28.703125 C 3.421875 -30.765625 3.863281 -32.597656 4.75 -34.203125 C 5.644531 -35.804688 6.859375 -37.0625 8.390625 -37.96875 C 9.921875 -38.882812 11.632812 -39.34375 13.53125 -39.34375 C 14.988281 -39.34375 16.296875 -39.109375 17.453125 -38.640625 C 18.609375 -38.179688 19.6875 -37.703125 20.6875 -37.203125 C 21.289062 -36.847656 21.828125 -36.671875 22.296875 -36.671875 C 22.898438 -36.671875 23.203125 -37.0625 23.203125 -37.84375 L 23.203125 -38.640625 C 23.234375 -38.890625 23.359375 -39.015625 23.578125 -39.015625 C 23.710938 -39.015625 23.835938 -38.910156 23.953125 -38.703125 L 23.953125 -26.25 C 23.878906 -26 23.71875 -25.875 23.46875 -25.875 C 23.25 -25.875 23.101562 -26 23.03125 -26.25 L 22.984375 -27.578125 C 22.910156 -29.359375 22.484375 -31.085938 21.703125 -32.765625 C 20.921875 -34.441406 19.851562 -35.820312 18.5 -36.90625 C 17.144531 -38 15.519531 -38.546875 13.625 -38.546875 C 12.34375 -38.546875 11.273438 -38.195312 10.421875 -37.5 C 9.566406 -36.800781 8.914062 -35.898438 8.46875 -34.796875 C 8.019531 -33.691406 7.796875 -32.5 7.796875 -31.21875 C 7.796875 -29.289062 8.144531 -27.835938 8.84375 -26.859375 C 9.539062 -25.878906 10.65625 -25.035156 12.1875 -24.328125 L 17.796875 -21.65625 C 20.609375 -20.363281 22.566406 -18.804688 23.671875 -16.984375 C 24.785156 -15.171875 25.34375 -13.019531 25.34375 -10.53125 C 25.34375 -8.144531 24.832031 -6.101562 23.8125 -4.40625 C 22.800781 -2.71875 21.4375 -1.4375 19.71875 -0.5625 C 18.007812 0.3125 16.125 0.75 14.0625 0.75 C 12.59375 0.75 11.21875 0.515625 9.9375 0.046875 C 8.65625 -0.410156 7.484375 -0.90625 6.421875 -1.4375 C 6.128906 -1.582031 5.835938 -1.695312 5.546875 -1.78125 C 5.265625 -1.875 5.035156 -1.921875 4.859375 -1.921875 C 4.222656 -1.921875 3.90625 -1.546875 3.90625 -0.796875 L 3.90625 0.15625 C 3.90625 0.40625 3.796875 0.53125 3.578125 0.53125 C 3.367188 0.53125 3.242188 0.40625 3.203125 0.15625 Z M 3.203125 -13.3125"/></g></g></g><g fill-opacity="1" fill="#3d3b3a"><g transform="translate(164.831247, 231.042011)"><g><path d="M 7.796875 0.046875 C 7.554688 0.015625 7.4375 -0.125 7.4375 -0.375 C 7.4375 -0.582031 7.554688 -0.742188 7.796875 -0.859375 L 11.8125 -0.859375 C 12.0625 -0.859375 12.1875 -0.984375 12.1875 -1.234375 L 12.1875 -37.359375 C 12.1875 -37.609375 12.078125 -37.734375 11.859375 -37.734375 L 8.984375 -37.625 C 7.453125 -37.59375 6.253906 -37.175781 5.390625 -36.375 C 4.535156 -35.570312 3.921875 -34.546875 3.546875 -33.296875 C 3.179688 -32.054688 2.960938 -30.722656 2.890625 -29.296875 L 2.71875 -27 C 2.6875 -26.75 2.546875 -26.625 2.296875 -26.625 C 2.046875 -26.625 1.90625 -26.75 1.875 -27 L 2.140625 -38.328125 C 2.140625 -38.578125 2.242188 -38.703125 2.453125 -38.703125 L 15.125 -38.546875 L 27.75 -38.703125 C 27.957031 -38.703125 28.0625 -38.578125 28.0625 -38.328125 L 28.328125 -27 C 28.222656 -26.75 28.0625 -26.625 27.84375 -26.625 C 27.664062 -26.625 27.523438 -26.75 27.421875 -27 L 27.3125 -29.296875 C 27.238281 -30.722656 27.003906 -32.054688 26.609375 -33.296875 C 26.222656 -34.546875 25.601562 -35.570312 24.75 -36.375 C 23.894531 -37.175781 22.71875 -37.59375 21.21875 -37.625 L 18.328125 -37.734375 C 18.078125 -37.734375 17.953125 -37.609375 17.953125 -37.359375 L 17.953125 -1.234375 C 17.953125 -0.984375 18.078125 -0.859375 18.328125 -0.859375 L 22.34375 -0.859375 C 22.59375 -0.742188 22.71875 -0.582031 22.71875 -0.375 C 22.71875 -0.125 22.59375 0.015625 22.34375 0.046875 L 15.125 -0.046875 Z M 7.796875 0.046875"/></g></g></g><g fill-opacity="1" fill="#3d3b3a"><g transform="translate(197.061589, 231.042011)"><g><path d="M -0.375 0.046875 C -0.625 0.015625 -0.75 -0.125 -0.75 -0.375 C -0.75 -0.625 -0.625 -0.785156 -0.375 -0.859375 L 1.609375 -0.859375 C 2.492188 -0.859375 3.097656 -1.410156 3.421875 -2.515625 L 14.171875 -38.375 C 14.304688 -38.84375 14.570312 -39.078125 14.96875 -39.078125 C 15.320312 -39.078125 15.570312 -38.84375 15.71875 -38.375 L 26.734375 -1.28125 C 26.835938 -1 26.992188 -0.859375 27.203125 -0.859375 L 29.875 -0.859375 C 30.09375 -0.742188 30.203125 -0.582031 30.203125 -0.375 C 30.203125 -0.125 30.09375 0.015625 29.875 0.046875 L 23.84375 -0.046875 L 16.40625 0.046875 C 16.15625 -0.015625 16.03125 -0.15625 16.03125 -0.375 C 16.03125 -0.582031 16.15625 -0.742188 16.40625 -0.859375 L 20.578125 -0.859375 C 20.796875 -0.859375 20.90625 -0.960938 20.90625 -1.171875 C 20.90625 -1.242188 20.867188 -1.429688 20.796875 -1.734375 C 20.722656 -2.035156 20.648438 -2.273438 20.578125 -2.453125 L 17.265625 -14.109375 L 7.90625 -14.109375 L 4.703125 -3.421875 C 4.628906 -3.140625 4.554688 -2.890625 4.484375 -2.671875 C 4.421875 -2.460938 4.390625 -2.265625 4.390625 -2.078125 C 4.390625 -1.722656 4.507812 -1.429688 4.75 -1.203125 C 5 -0.972656 5.304688 -0.859375 5.671875 -0.859375 L 8.71875 -0.859375 C 8.96875 -0.742188 9.09375 -0.582031 9.09375 -0.375 C 9.09375 -0.125 8.96875 0.015625 8.71875 0.046875 L 3.6875 -0.046875 Z M 17 -15.015625 L 12.671875 -30.140625 L 8.171875 -15.015625 Z M 17 -15.015625"/></g></g></g><g fill-opacity="1" fill="#3d3b3a"><g transform="translate(229.02469, 231.042011)"><g><path d="M 3.203125 -13.3125 C 3.242188 -13.5625 3.390625 -13.6875 3.640625 -13.6875 C 3.890625 -13.6875 4.03125 -13.5625 4.0625 -13.3125 L 4.171875 -11.171875 C 4.273438 -9.359375 4.707031 -7.59375 5.46875 -5.875 C 6.238281 -4.164062 7.335938 -2.765625 8.765625 -1.671875 C 10.191406 -0.585938 11.898438 -0.046875 13.890625 -0.046875 C 16.210938 -0.046875 17.96875 -0.820312 19.15625 -2.375 C 20.351562 -3.925781 20.953125 -5.914062 20.953125 -8.34375 C 20.953125 -10.195312 20.539062 -11.640625 19.71875 -12.671875 C 18.90625 -13.703125 17.710938 -14.59375 16.140625 -15.34375 L 10.578125 -17.90625 C 8.046875 -19.113281 6.21875 -20.617188 5.09375 -22.421875 C 3.976562 -24.222656 3.421875 -26.316406 3.421875 -28.703125 C 3.421875 -30.765625 3.863281 -32.597656 4.75 -34.203125 C 5.644531 -35.804688 6.859375 -37.0625 8.390625 -37.96875 C 9.921875 -38.882812 11.632812 -39.34375 13.53125 -39.34375 C 14.988281 -39.34375 16.296875 -39.109375 17.453125 -38.640625 C 18.609375 -38.179688 19.6875 -37.703125 20.6875 -37.203125 C 21.289062 -36.847656 21.828125 -36.671875 22.296875 -36.671875 C 22.898438 -36.671875 23.203125 -37.0625 23.203125 -37.84375 L 23.203125 -38.640625 C 23.234375 -38.890625 23.359375 -39.015625 23.578125 -39.015625 C 23.710938 -39.015625 23.835938 -38.910156 23.953125 -38.703125 L 23.953125 -26.25 C 23.878906 -26 23.71875 -25.875 23.46875 -25.875 C 23.25 -25.875 23.101562 -26 23.03125 -26.25 L 22.984375 -27.578125 C 22.910156 -29.359375 22.484375 -31.085938 21.703125 -32.765625 C 20.921875 -34.441406 19.851562 -35.820312 18.5 -36.90625 C 17.144531 -38 15.519531 -38.546875 13.625 -38.546875 C 12.34375 -38.546875 11.273438 -38.195312 10.421875 -37.5 C 9.566406 -36.800781 8.914062 -35.898438 8.46875 -34.796875 C 8.019531 -33.691406 7.796875 -32.5 7.796875 -31.21875 C 7.796875 -29.289062 8.144531 -27.835938 8.84375 -26.859375 C 9.539062 -25.878906 10.65625 -25.035156 12.1875 -24.328125 L 17.796875 -21.65625 C 20.609375 -20.363281 22.566406 -18.804688 23.671875 -16.984375 C 24.785156 -15.171875 25.34375 -13.019531 25.34375 -10.53125 C 25.34375 -8.144531 24.832031 -6.101562 23.8125 -4.40625 C 22.800781 -2.71875 21.4375 -1.4375 19.71875 -0.5625 C 18.007812 0.3125 16.125 0.75 14.0625 0.75 C 12.59375 0.75 11.21875 0.515625 9.9375 0.046875 C 8.65625 -0.410156 7.484375 -0.90625 6.421875 -1.4375 C 6.128906 -1.582031 5.835938 -1.695312 5.546875 -1.78125 C 5.265625 -1.875 5.035156 -1.921875 4.859375 -1.921875 C 4.222656 -1.921875 3.90625 -1.546875 3.90625 -0.796875 L 3.90625 0.15625 C 3.90625 0.40625 3.796875 0.53125 3.578125 0.53125 C 3.367188 0.53125 3.242188 0.40625 3.203125 0.15625 Z M 3.203125 -13.3125"/></g></g></g><g fill-opacity="1" fill="#3d3b3a"><g transform="translate(259.063615, 231.042011)"><g><path d="M 8.546875 0.046875 C 8.335938 0.015625 8.234375 -0.125 8.234375 -0.375 C 8.234375 -0.625 8.335938 -0.785156 8.546875 -0.859375 L 12.078125 -0.859375 C 12.328125 -0.859375 12.453125 -0.984375 12.453125 -1.234375 L 12.453125 -17.109375 L 3.734375 -37.359375 C 3.628906 -37.609375 3.453125 -37.734375 3.203125 -37.734375 L 0.484375 -37.734375 C 0.234375 -37.835938 0.109375 -37.984375 0.109375 -38.171875 C 0.109375 -38.378906 0.234375 -38.535156 0.484375 -38.640625 L 7.109375 -38.546875 L 14.265625 -38.640625 C 14.484375 -38.535156 14.59375 -38.378906 14.59375 -38.171875 C 14.59375 -37.984375 14.484375 -37.835938 14.265625 -37.734375 L 10.265625 -37.734375 C 10.015625 -37.734375 9.890625 -37.609375 9.890625 -37.359375 C 9.890625 -37.253906 9.929688 -37.09375 10.015625 -36.875 C 10.109375 -36.664062 10.226562 -36.382812 10.375 -36.03125 L 17.53125 -18.875 L 24.640625 -35.4375 C 24.742188 -35.71875 24.835938 -35.945312 24.921875 -36.125 C 25.015625 -36.3125 25.0625 -36.472656 25.0625 -36.609375 C 25.0625 -36.972656 24.945312 -37.25 24.71875 -37.4375 C 24.488281 -37.632812 24.234375 -37.734375 23.953125 -37.734375 L 20.734375 -37.734375 C 20.484375 -37.835938 20.359375 -37.984375 20.359375 -38.171875 C 20.359375 -38.378906 20.484375 -38.535156 20.734375 -38.640625 L 25.765625 -38.546875 L 30.09375 -38.640625 C 30.34375 -38.535156 30.46875 -38.378906 30.46875 -38.171875 C 30.46875 -37.984375 30.34375 -37.835938 30.09375 -37.734375 L 27.953125 -37.734375 C 27.066406 -37.734375 26.441406 -37.289062 26.078125 -36.40625 L 18.171875 -18.015625 L 18.171875 -1.234375 C 18.171875 -0.984375 18.296875 -0.859375 18.546875 -0.859375 L 22.015625 -0.859375 C 22.265625 -0.742188 22.390625 -0.582031 22.390625 -0.375 C 22.390625 -0.125 22.265625 0.015625 22.015625 0.046875 L 15.28125 -0.046875 Z M 8.546875 0.046875"/></g></g></g><g fill-opacity="1" fill="#3d3b3a"><g transform="translate(291.454307, 231.042011)"><g><path d="M -0.375 0.046875 C -0.625 0.015625 -0.75 -0.125 -0.75 -0.375 C -0.75 -0.625 -0.625 -0.785156 -0.375 -0.859375 L 1.609375 -0.859375 C 2.492188 -0.859375 3.097656 -1.410156 3.421875 -2.515625 L 14.171875 -38.375 C 14.304688 -38.84375 14.570312 -39.078125 14.96875 -39.078125 C 15.320312 -39.078125 15.570312 -38.84375 15.71875 -38.375 L 26.734375 -1.28125 C 26.835938 -1 26.992188 -0.859375 27.203125 -0.859375 L 29.875 -0.859375 C 30.09375 -0.742188 30.203125 -0.582031 30.203125 -0.375 C 30.203125 -0.125 30.09375 0.015625 29.875 0.046875 L 23.84375 -0.046875 L 16.40625 0.046875 C 16.15625 -0.015625 16.03125 -0.15625 16.03125 -0.375 C 16.03125 -0.582031 16.15625 -0.742188 16.40625 -0.859375 L 20.578125 -0.859375 C 20.796875 -0.859375 20.90625 -0.960938 20.90625 -1.171875 C 20.90625 -1.242188 20.867188 -1.429688 20.796875 -1.734375 C 20.722656 -2.035156 20.648438 -2.273438 20.578125 -2.453125 L 17.265625 -14.109375 L 7.90625 -14.109375 L 4.703125 -3.421875 C 4.628906 -3.140625 4.554688 -2.890625 4.484375 -2.671875 C 4.421875 -2.460938 4.390625 -2.265625 4.390625 -2.078125 C 4.390625 -1.722656 4.507812 -1.429688 4.75 -1.203125 C 5 -0.972656 5.304688 -0.859375 5.671875 -0.859375 L 8.71875 -0.859375 C 8.96875 -0.742188 9.09375 -0.582031 9.09375 -0.375 C 9.09375 -0.125 8.96875 0.015625 8.71875 0.046875 L 3.6875 -0.046875 Z M 17 -15.015625 L 12.671875 -30.140625 L 8.171875 -15.015625 Z M 17 -15.015625"/></g></g></g><g fill-opacity="1" fill="#3d3b3a"><g transform="translate(71.156821, 247.06321)"><g><path d="M 1.46875 0 L 1.46875 -10.0625 L 2.640625 -10.0625 L 6.59375 -4.09375 L 10.515625 -10.0625 L 11.703125 -10.0625 L 11.703125 0 L 10.4375 0 L 10.4375 -7.6875 L 7.09375 -2.671875 L 6.0625 -2.671875 L 2.734375 -7.703125 L 2.734375 0 Z M 1.46875 0"/></g></g></g><g fill-opacity="1" fill="#3d3b3a"><g transform="translate(87.810469, 247.06321)"><g><path d="M 0.25 0 L 4.390625 -10.0625 L 5.5625 -10.0625 L 9.703125 0 L 8.359375 0 L 7.421875 -2.28125 L 2.515625 -2.28125 L 1.59375 0 Z M 3 -3.46875 L 6.9375 -3.46875 L 4.96875 -8.296875 Z M 3 -3.46875"/></g></g></g><g fill-opacity="1" fill="#3d3b3a"><g transform="translate(101.245877, 247.06321)"><g><path d="M 1.46875 0 L 1.46875 -10.0625 L 2.65625 -10.0625 L 8.21875 -2.1875 L 8.21875 -10.0625 L 9.453125 -10.0625 L 9.453125 0 L 8.28125 0 L 2.71875 -7.875 L 2.71875 0 Z M 1.46875 0"/></g></g></g><g fill-opacity="1" fill="#3d3b3a"><g transform="translate(115.658256, 247.06321)"><g><path d="M 1.46875 0 L 1.46875 -10.0625 L 2.734375 -10.0625 L 2.734375 0 Z M 1.46875 0"/></g></g></g><g fill-opacity="1" fill="#3d3b3a"><g transform="translate(123.346797, 247.06321)"><g><path d="M 5.921875 0.1875 C 5.179688 0.1875 4.5 0.0546875 3.875 -0.203125 C 3.257812 -0.460938 2.722656 -0.820312 2.265625 -1.28125 C 1.804688 -1.75 1.453125 -2.300781 1.203125 -2.9375 C 0.953125 -3.570312 0.828125 -4.269531 0.828125 -5.03125 C 0.828125 -5.789062 0.953125 -6.488281 1.203125 -7.125 C 1.453125 -7.757812 1.804688 -8.304688 2.265625 -8.765625 C 2.722656 -9.234375 3.257812 -9.597656 3.875 -9.859375 C 4.5 -10.117188 5.179688 -10.25 5.921875 -10.25 C 6.710938 -10.25 7.441406 -10.101562 8.109375 -9.8125 C 8.773438 -9.519531 9.34375 -9.101562 9.8125 -8.5625 C 10.289062 -8.019531 10.644531 -7.378906 10.875 -6.640625 L 9.515625 -6.640625 C 9.253906 -7.367188 8.804688 -7.941406 8.171875 -8.359375 C 7.535156 -8.773438 6.800781 -8.984375 5.96875 -8.984375 C 5.21875 -8.984375 4.554688 -8.816406 3.984375 -8.484375 C 3.410156 -8.148438 2.957031 -7.6875 2.625 -7.09375 C 2.289062 -6.5 2.125 -5.8125 2.125 -5.03125 C 2.125 -4.25 2.289062 -3.5625 2.625 -2.96875 C 2.957031 -2.375 3.410156 -1.910156 3.984375 -1.578125 C 4.554688 -1.242188 5.21875 -1.078125 5.96875 -1.078125 C 6.820312 -1.078125 7.578125 -1.296875 8.234375 -1.734375 C 8.898438 -2.179688 9.359375 -2.78125 9.609375 -3.53125 L 10.953125 -3.53125 C 10.753906 -2.789062 10.410156 -2.140625 9.921875 -1.578125 C 9.441406 -1.023438 8.859375 -0.59375 8.171875 -0.28125 C 7.484375 0.03125 6.734375 0.1875 5.921875 0.1875 Z M 5.921875 0.1875"/></g></g></g><g fill-opacity="1" fill="#3d3b3a"><g transform="translate(138.563731, 247.06321)"><g><path d="M 5.234375 0.171875 C 4.015625 0.171875 3.0625 -0.203125 2.375 -0.953125 C 1.6875 -1.710938 1.34375 -2.757812 1.34375 -4.09375 L 1.34375 -10.0625 L 2.609375 -10.0625 L 2.609375 -4.1875 C 2.609375 -3.15625 2.832031 -2.375 3.28125 -1.84375 C 3.726562 -1.320312 4.378906 -1.0625 5.234375 -1.0625 C 6.984375 -1.0625 7.859375 -2.101562 7.859375 -4.1875 L 7.859375 -10.0625 L 9.125 -10.0625 L 9.125 -4.09375 C 9.125 -2.757812 8.78125 -1.710938 8.09375 -0.953125 C 7.40625 -0.203125 6.453125 0.171875 5.234375 0.171875 Z M 5.234375 0.171875"/></g></g></g><g fill-opacity="1" fill="#3d3b3a"><g transform="translate(152.530729, 247.06321)"><g><path d="M 1.46875 0 L 1.46875 -10.0625 L 5.296875 -10.0625 C 6.003906 -10.0625 6.613281 -9.925781 7.125 -9.65625 C 7.644531 -9.394531 8.046875 -9.023438 8.328125 -8.546875 C 8.617188 -8.066406 8.765625 -7.492188 8.765625 -6.828125 C 8.765625 -6.015625 8.550781 -5.34375 8.125 -4.8125 C 7.707031 -4.28125 7.128906 -3.921875 6.390625 -3.734375 L 8.921875 0 L 7.40625 0 L 4.9375 -3.609375 L 2.734375 -3.609375 L 2.734375 0 Z M 2.734375 -4.8125 L 5.15625 -4.8125 C 5.894531 -4.8125 6.460938 -4.984375 6.859375 -5.328125 C 7.265625 -5.679688 7.46875 -6.179688 7.46875 -6.828125 C 7.46875 -7.472656 7.265625 -7.972656 6.859375 -8.328125 C 6.460938 -8.679688 5.894531 -8.859375 5.15625 -8.859375 L 2.734375 -8.859375 Z M 2.734375 -4.8125"/></g></g></g><g fill-opacity="1" fill="#3d3b3a"><g transform="translate(165.808095, 247.06321)"><g><path d="M 1.46875 0 L 1.46875 -10.0625 L 7.578125 -10.0625 L 7.578125 -8.890625 L 2.734375 -8.890625 L 2.734375 -5.703125 L 7.21875 -5.703125 L 7.21875 -4.546875 L 2.734375 -4.546875 L 2.734375 -1.171875 L 7.734375 -1.171875 L 7.734375 0 Z M 1.46875 0"/></g></g></g><g fill-opacity="1" fill="#3d3b3a"><g transform="translate(177.964821, 247.06321)"><g/></g></g><g fill-opacity="1" fill="#3d3b3a"><g transform="translate(185.021213, 247.06321)"><g><path d="M 4.203125 0.1875 C 3.128906 0.1875 2.289062 -0.0507812 1.6875 -0.53125 C 1.082031 -1.007812 0.78125 -1.675781 0.78125 -2.53125 C 0.78125 -3.144531 0.941406 -3.675781 1.265625 -4.125 C 1.597656 -4.582031 2.113281 -4.972656 2.8125 -5.296875 C 2.425781 -5.734375 2.117188 -6.160156 1.890625 -6.578125 C 1.671875 -7.003906 1.5625 -7.4375 1.5625 -7.875 C 1.5625 -8.34375 1.679688 -8.753906 1.921875 -9.109375 C 2.171875 -9.460938 2.515625 -9.738281 2.953125 -9.9375 C 3.398438 -10.144531 3.910156 -10.25 4.484375 -10.25 C 5.066406 -10.25 5.582031 -10.140625 6.03125 -9.921875 C 6.476562 -9.710938 6.828125 -9.425781 7.078125 -9.0625 C 7.328125 -8.695312 7.453125 -8.265625 7.453125 -7.765625 C 7.453125 -6.492188 6.59375 -5.53125 4.875 -4.875 L 7.125 -2.59375 C 7.46875 -3.207031 7.644531 -3.96875 7.65625 -4.875 L 8.875 -4.875 C 8.84375 -3.5625 8.550781 -2.5 8 -1.6875 L 9.65625 0 L 8.03125 0 L 7.25 -0.8125 C 6.445312 -0.144531 5.429688 0.1875 4.203125 0.1875 Z M 1.984375 -2.5625 C 1.984375 -2.0625 2.179688 -1.671875 2.578125 -1.390625 C 2.972656 -1.117188 3.519531 -0.984375 4.21875 -0.984375 C 5.082031 -0.984375 5.800781 -1.210938 6.375 -1.671875 L 3.65625 -4.4375 C 2.539062 -3.988281 1.984375 -3.363281 1.984375 -2.5625 Z M 2.75 -7.890625 C 2.75 -7.617188 2.84375 -7.320312 3.03125 -7 C 3.226562 -6.675781 3.554688 -6.269531 4.015625 -5.78125 C 4.804688 -6.0625 5.378906 -6.359375 5.734375 -6.671875 C 6.085938 -6.992188 6.265625 -7.359375 6.265625 -7.765625 C 6.265625 -8.179688 6.101562 -8.515625 5.78125 -8.765625 C 5.457031 -9.015625 5.019531 -9.140625 4.46875 -9.140625 C 3.945312 -9.140625 3.53125 -9.023438 3.21875 -8.796875 C 2.90625 -8.578125 2.75 -8.273438 2.75 -7.890625 Z M 2.75 -7.890625"/></g></g></g><g fill-opacity="1" fill="#3d3b3a"><g transform="translate(198.700861, 247.06321)"><g/></g></g><g fill-opacity="1" fill="#3d3b3a"><g transform="translate(205.757253, 247.06321)"><g><path d="M 1.46875 0 L 1.46875 -10.0625 L 4.875 -10.0625 C 5.632812 -10.0625 6.289062 -9.921875 6.84375 -9.640625 C 7.40625 -9.367188 7.835938 -8.976562 8.140625 -8.46875 C 8.453125 -7.96875 8.609375 -7.375 8.609375 -6.6875 C 8.609375 -6 8.453125 -5.398438 8.140625 -4.890625 C 7.835938 -4.390625 7.40625 -4 6.84375 -3.71875 C 6.289062 -3.445312 5.632812 -3.3125 4.875 -3.3125 L 2.734375 -3.3125 L 2.734375 0 Z M 2.734375 -4.484375 L 4.84375 -4.484375 C 6.488281 -4.484375 7.3125 -5.210938 7.3125 -6.671875 C 7.3125 -8.128906 6.488281 -8.859375 4.84375 -8.859375 L 2.734375 -8.859375 Z M 2.734375 -4.484375"/></g></g></g><g fill-opacity="1" fill="#3d3b3a"><g transform="translate(218.431206, 247.06321)"><g><path d="M 1.46875 0 L 1.46875 -10.0625 L 7.578125 -10.0625 L 7.578125 -8.890625 L 2.734375 -8.890625 L 2.734375 -5.703125 L 7.21875 -5.703125 L 7.21875 -4.546875 L 2.734375 -4.546875 L 2.734375 -1.171875 L 7.734375 -1.171875 L 7.734375 0 Z M 1.46875 0"/></g></g></g><g fill-opacity="1" fill="#3d3b3a"><g transform="translate(230.587932, 247.06321)"><g><path d="M 1.46875 0 L 1.46875 -10.0625 L 4.9375 -10.0625 C 5.976562 -10.0625 6.882812 -9.847656 7.65625 -9.421875 C 8.425781 -8.992188 9.023438 -8.40625 9.453125 -7.65625 C 9.890625 -6.90625 10.109375 -6.03125 10.109375 -5.03125 C 10.109375 -4.039062 9.890625 -3.164062 9.453125 -2.40625 C 9.023438 -1.65625 8.425781 -1.066406 7.65625 -0.640625 C 6.882812 -0.210938 5.976562 0 4.9375 0 Z M 2.734375 -1.203125 L 4.9375 -1.203125 C 5.707031 -1.203125 6.378906 -1.363281 6.953125 -1.6875 C 7.535156 -2.007812 7.988281 -2.457031 8.3125 -3.03125 C 8.644531 -3.601562 8.8125 -4.269531 8.8125 -5.03125 C 8.8125 -5.800781 8.644531 -6.46875 8.3125 -7.03125 C 7.976562 -7.601562 7.519531 -8.050781 6.9375 -8.375 C 6.351562 -8.695312 5.671875 -8.859375 4.890625 -8.859375 L 2.734375 -8.859375 Z M 2.734375 -1.203125"/></g></g></g><g fill-opacity="1" fill="#3d3b3a"><g transform="translate(245.014674, 247.06321)"><g><path d="M 1.46875 0 L 1.46875 -10.0625 L 2.734375 -10.0625 L 2.734375 0 Z M 1.46875 0"/></g></g></g><g fill-opacity="1" fill="#3d3b3a"><g transform="translate(252.703215, 247.06321)"><g><path d="M 5.921875 0.1875 C 5.179688 0.1875 4.5 0.0546875 3.875 -0.203125 C 3.257812 -0.460938 2.722656 -0.820312 2.265625 -1.28125 C 1.804688 -1.75 1.453125 -2.300781 1.203125 -2.9375 C 0.953125 -3.570312 0.828125 -4.269531 0.828125 -5.03125 C 0.828125 -5.789062 0.953125 -6.488281 1.203125 -7.125 C 1.453125 -7.757812 1.804688 -8.304688 2.265625 -8.765625 C 2.722656 -9.234375 3.257812 -9.597656 3.875 -9.859375 C 4.5 -10.117188 5.179688 -10.25 5.921875 -10.25 C 6.710938 -10.25 7.441406 -10.101562 8.109375 -9.8125 C 8.773438 -9.519531 9.34375 -9.101562 9.8125 -8.5625 C 10.289062 -8.019531 10.644531 -7.378906 10.875 -6.640625 L 9.515625 -6.640625 C 9.253906 -7.367188 8.804688 -7.941406 8.171875 -8.359375 C 7.535156 -8.773438 6.800781 -8.984375 5.96875 -8.984375 C 5.21875 -8.984375 4.554688 -8.816406 3.984375 -8.484375 C 3.410156 -8.148438 2.957031 -7.6875 2.625 -7.09375 C 2.289062 -6.5 2.125 -5.8125 2.125 -5.03125 C 2.125 -4.25 2.289062 -3.5625 2.625 -2.96875 C 2.957031 -2.375 3.410156 -1.910156 3.984375 -1.578125 C 4.554688 -1.242188 5.21875 -1.078125 5.96875 -1.078125 C 6.820312 -1.078125 7.578125 -1.296875 8.234375 -1.734375 C 8.898438 -2.179688 9.359375 -2.78125 9.609375 -3.53125 L 10.953125 -3.53125 C 10.753906 -2.789062 10.410156 -2.140625 9.921875 -1.578125 C 9.441406 -1.023438 8.859375 -0.59375 8.171875 -0.28125 C 7.484375 0.03125 6.734375 0.1875 5.921875 0.1875 Z M 5.921875 0.1875"/></g></g></g><g fill-opacity="1" fill="#3d3b3a"><g transform="translate(267.92016, 247.06321)"><g><path d="M 5.234375 0.171875 C 4.015625 0.171875 3.0625 -0.203125 2.375 -0.953125 C 1.6875 -1.710938 1.34375 -2.757812 1.34375 -4.09375 L 1.34375 -10.0625 L 2.609375 -10.0625 L 2.609375 -4.1875 C 2.609375 -3.15625 2.832031 -2.375 3.28125 -1.84375 C 3.726562 -1.320312 4.378906 -1.0625 5.234375 -1.0625 C 6.984375 -1.0625 7.859375 -2.101562 7.859375 -4.1875 L 7.859375 -10.0625 L 9.125 -10.0625 L 9.125 -4.09375 C 9.125 -2.757812 8.78125 -1.710938 8.09375 -0.953125 C 7.40625 -0.203125 6.453125 0.171875 5.234375 0.171875 Z M 5.234375 0.171875"/></g></g></g><g fill-opacity="1" fill="#3d3b3a"><g transform="translate(281.88717, 247.06321)"><g><path d="M 1.46875 0 L 1.46875 -10.0625 L 5.296875 -10.0625 C 6.003906 -10.0625 6.613281 -9.925781 7.125 -9.65625 C 7.644531 -9.394531 8.046875 -9.023438 8.328125 -8.546875 C 8.617188 -8.066406 8.765625 -7.492188 8.765625 -6.828125 C 8.765625 -6.015625 8.550781 -5.34375 8.125 -4.8125 C 7.707031 -4.28125 7.128906 -3.921875 6.390625 -3.734375 L 8.921875 0 L 7.40625 0 L 4.9375 -3.609375 L 2.734375 -3.609375 L 2.734375 0 Z M 2.734375 -4.8125 L 5.15625 -4.8125 C 5.894531 -4.8125 6.460938 -4.984375 6.859375 -5.328125 C 7.265625 -5.679688 7.46875 -6.179688 7.46875 -6.828125 C 7.46875 -7.472656 7.265625 -7.972656 6.859375 -8.328125 C 6.460938 -8.679688 5.894531 -8.859375 5.15625 -8.859375 L 2.734375 -8.859375 Z M 2.734375 -4.8125"/></g></g></g><g fill-opacity="1" fill="#3d3b3a"><g transform="translate(295.164536, 247.06321)"><g><path d="M 1.46875 0 L 1.46875 -10.0625 L 7.578125 -10.0625 L 7.578125 -8.890625 L 2.734375 -8.890625 L 2.734375 -5.703125 L 7.21875 -5.703125 L 7.21875 -4.546875 L 2.734375 -4.546875 L 2.734375 -1.171875 L 7.734375 -1.171875 L 7.734375 0 Z M 1.46875 0"/></g></g></g></svg>