<svg style="max-height: 50px" xmlns="http://www.w3.org/2000/svg" xmlns:xlink="http://www.w3.org/1999/xlink" zoomAndPan="magnify" viewBox="17.25 175.499995788 339.75 71.39018520252337" preserveAspectRatio="xMidYMid meet" version="1.0" width="300" height="71.39018520252337"><defs><g/><clipPath id="e69acbdd46"><path d="M 100.492188 175.046875 L 130.492188 175.046875 L 130.492188 232 L 100.492188 232 Z M 100.492188 175.046875" clip-rule="nonzero"/></clipPath></defs><g clip-path="url(#e69acbdd46)"><path fill="#3d3b3a" d="M 130.261719 227.734375 C 130.257812 227.71875 130.265625 227.707031 130.261719 227.691406 L 126.109375 197.566406 C 126.109375 197.566406 126.109375 197.5625 126.109375 197.5625 C 126.046875 196.085938 124.304688 194.832031 121.292969 194.085938 L 121.292969 177.152344 C 121.292969 175.5 117.605469 175.058594 115.425781 175.058594 C 113.25 175.058594 109.5625 175.5 109.5625 177.152344 L 109.5625 194.085938 C 106.546875 194.832031 104.808594 196.085938 104.746094 197.5625 C 104.746094 197.566406 104.746094 197.566406 104.746094 197.566406 L 100.589844 227.691406 C 100.589844 227.703125 100.59375 227.710938 100.59375 227.722656 C 100.589844 227.738281 100.582031 227.753906 100.582031 227.769531 C 100.582031 230.492188 108.050781 231.914062 115.425781 231.914062 C 122.800781 231.914062 130.265625 230.488281 130.265625 227.769531 C 130.265625 227.757812 130.261719 227.746094 130.261719 227.734375 Z M 124.957031 197.644531 C 124.957031 198.980469 121.464844 200.460938 116.621094 200.675781 L 116.621094 198.796875 C 118.734375 198.65625 121.300781 198.125 121.300781 196.746094 C 121.300781 196.707031 121.285156 196.671875 121.277344 196.636719 C 121.28125 196.609375 121.292969 196.585938 121.292969 196.558594 L 121.292969 195.289062 C 123.804688 195.960938 124.957031 196.929688 124.957031 197.644531 Z M 116.449219 222.515625 L 116.429688 222.515625 C 116.429688 222.492188 116.4375 222.476562 116.441406 222.460938 Z M 115.785156 216.050781 L 116.4375 222.40625 C 116.335938 222.476562 116 222.601562 115.417969 222.601562 C 114.863281 222.601562 114.535156 222.488281 114.417969 222.417969 L 115.074219 216.007812 C 115.074219 215.996094 115.070312 215.984375 115.070312 215.96875 C 115.074219 215.941406 115.085938 215.914062 115.085938 215.882812 L 115.085938 201.855469 C 115.199219 201.859375 115.3125 201.863281 115.425781 201.863281 C 115.535156 201.863281 115.644531 201.859375 115.75 201.855469 L 115.75 215.886719 C 115.75 215.945312 115.765625 216 115.785156 216.050781 Z M 115.425781 200.703125 C 115.3125 200.703125 115.199219 200.699219 115.085938 200.695312 L 115.085938 198.832031 C 115.207031 198.835938 115.324219 198.835938 115.4375 198.835938 C 115.539062 198.835938 115.644531 198.835938 115.75 198.832031 L 115.75 200.699219 C 115.644531 200.699219 115.539062 200.703125 115.425781 200.703125 Z M 110.71875 178.480469 C 111.984375 179.054688 114.019531 179.242188 115.425781 179.242188 C 116.835938 179.242188 118.867188 179.054688 120.136719 178.480469 L 120.136719 196.558594 C 120.136719 196.59375 120.148438 196.625 120.15625 196.65625 C 120.152344 196.675781 120.140625 196.695312 120.140625 196.714844 C 119.960938 197.007812 118.410156 197.675781 115.4375 197.675781 C 112.460938 197.675781 110.910156 197.007812 110.730469 196.714844 C 110.730469 196.699219 110.722656 196.683594 110.71875 196.667969 Z M 115.425781 176.21875 C 118.304688 176.21875 119.851562 176.84375 120.113281 177.152344 C 119.851562 177.457031 118.304688 178.085938 115.425781 178.085938 C 112.550781 178.085938 111 177.457031 110.742188 177.152344 C 111 176.84375 112.550781 176.21875 115.425781 176.21875 Z M 109.5625 195.289062 L 109.5625 196.925781 C 109.5625 197.109375 109.652344 197.265625 109.785156 197.371094 C 110.429688 198.285156 112.46875 198.675781 114.214844 198.792969 L 114.214844 200.675781 C 109.382812 200.457031 105.898438 198.980469 105.898438 197.644531 C 105.898438 196.929688 107.050781 195.960938 109.5625 195.289062 Z M 115.425781 230.757812 C 107.117188 230.757812 101.800781 229.003906 101.746094 227.785156 L 105.65625 199.4375 C 107.25 200.859375 110.703125 201.679688 114.214844 201.832031 L 114.214844 215.886719 C 114.214844 215.886719 114.21875 215.890625 114.21875 215.890625 C 114.214844 215.902344 114.210938 215.910156 114.207031 215.921875 L 113.539062 222.472656 C 113.535156 222.488281 113.542969 222.5 113.542969 222.515625 L 113.535156 222.515625 C 113.535156 222.542969 113.546875 222.566406 113.550781 222.589844 C 113.554688 222.613281 113.554688 222.636719 113.5625 222.65625 C 113.691406 223.253906 114.613281 223.472656 115.417969 223.472656 C 116.199219 223.472656 117.09375 223.269531 117.265625 222.710938 C 117.300781 222.640625 117.324219 222.558594 117.316406 222.472656 L 116.648438 215.921875 C 116.644531 215.894531 116.628906 215.871094 116.621094 215.84375 L 116.621094 201.835938 C 120.140625 201.683594 123.601562 200.863281 125.199219 199.4375 L 129.105469 227.777344 C 129.082031 228.996094 123.757812 230.757812 115.425781 230.757812 Z M 115.425781 230.757812" fill-opacity="1" fill-rule="nonzero"/></g><path fill="#3d3b3a" d="M 112.171875 194.347656 C 112.410156 194.347656 112.605469 194.152344 112.605469 193.914062 L 112.605469 181.972656 C 112.605469 181.734375 112.410156 181.539062 112.171875 181.539062 C 111.929688 181.539062 111.734375 181.734375 111.734375 181.972656 L 111.734375 193.914062 C 111.734375 194.152344 111.929688 194.347656 112.171875 194.347656 Z M 112.171875 194.347656" fill-opacity="1" fill-rule="nonzero"/><g fill="#3d3b3a" fill-opacity="1"><g transform="translate(18.689594, 227.592011)"><g><path d="M -0.4375 0.0625 C -0.738281 0.0195312 -0.890625 -0.144531 -0.890625 -0.4375 C -0.890625 -0.738281 -0.738281 -0.929688 -0.4375 -1.015625 L 1.90625 -1.015625 C 2.957031 -1.015625 3.675781 -1.671875 4.0625 -2.984375 L 16.8125 -45.5625 C 16.976562 -46.113281 17.296875 -46.390625 17.765625 -46.390625 C 18.191406 -46.390625 18.488281 -46.113281 18.65625 -45.5625 L 31.734375 -1.515625 C 31.859375 -1.179688 32.046875 -1.015625 32.296875 -1.015625 L 35.46875 -1.015625 C 35.71875 -0.890625 35.84375 -0.695312 35.84375 -0.4375 C 35.84375 -0.144531 35.71875 0.0195312 35.46875 0.0625 L 28.296875 -0.0625 L 19.484375 0.0625 C 19.179688 -0.0195312 19.03125 -0.1875 19.03125 -0.4375 C 19.03125 -0.695312 19.179688 -0.890625 19.484375 -1.015625 L 24.421875 -1.015625 C 24.679688 -1.015625 24.8125 -1.140625 24.8125 -1.390625 C 24.8125 -1.472656 24.769531 -1.695312 24.6875 -2.0625 C 24.601562 -2.425781 24.515625 -2.710938 24.421875 -2.921875 L 20.5 -16.75 L 9.390625 -16.75 L 5.578125 -4.0625 C 5.492188 -3.71875 5.410156 -3.421875 5.328125 -3.171875 C 5.242188 -2.921875 5.203125 -2.6875 5.203125 -2.46875 C 5.203125 -2.050781 5.347656 -1.703125 5.640625 -1.421875 C 5.941406 -1.148438 6.300781 -1.015625 6.71875 -1.015625 L 10.34375 -1.015625 C 10.632812 -0.890625 10.78125 -0.695312 10.78125 -0.4375 C 10.78125 -0.144531 10.632812 0.0195312 10.34375 0.0625 L 4.375 -0.0625 Z M 20.171875 -17.828125 L 15.03125 -35.78125 L 9.703125 -17.828125 Z M 20.171875 -17.828125"/></g></g></g><g fill="#3d3b3a" fill-opacity="1"><g transform="translate(56.63698, 227.592011)"><g><path d="M 2.53125 0.0625 C 2.28125 0.0195312 2.15625 -0.144531 2.15625 -0.4375 C 2.15625 -0.738281 2.28125 -0.929688 2.53125 -1.015625 L 6.09375 -1.015625 C 6.5625 -1.015625 6.953125 -1.222656 7.265625 -1.640625 C 7.578125 -2.066406 7.734375 -2.578125 7.734375 -3.171875 L 7.734375 -39.65625 C 7.734375 -41.132812 7.445312 -42.359375 6.875 -43.328125 C 6.3125 -44.304688 5.609375 -44.796875 4.765625 -44.796875 L 1.515625 -44.796875 C 1.265625 -44.878906 1.140625 -45.050781 1.140625 -45.3125 C 1.140625 -45.601562 1.265625 -45.789062 1.515625 -45.875 L 9.078125 -45.75 L 12 -45.875 C 12.332031 -45.875 12.613281 -45.765625 12.84375 -45.546875 C 13.082031 -45.335938 13.285156 -45.085938 13.453125 -44.796875 L 32.109375 -12.8125 C 32.316406 -12.476562 32.550781 -12.3125 32.8125 -12.3125 C 33.101562 -12.3125 33.25 -12.519531 33.25 -12.9375 L 33.25 -42.578125 C 33.25 -43.210938 33.078125 -43.738281 32.734375 -44.15625 C 32.398438 -44.582031 32 -44.796875 31.53125 -44.796875 L 27.34375 -44.796875 C 27.09375 -44.878906 26.96875 -45.050781 26.96875 -45.3125 C 26.96875 -45.601562 27.09375 -45.789062 27.34375 -45.875 L 33.890625 -45.75 L 39.59375 -45.875 C 39.882812 -45.75 40.03125 -45.5625 40.03125 -45.3125 C 40.03125 -45.09375 39.882812 -44.921875 39.59375 -44.796875 L 36.109375 -44.796875 C 35.640625 -44.796875 35.242188 -44.582031 34.921875 -44.15625 C 34.609375 -43.738281 34.453125 -43.210938 34.453125 -42.578125 L 34.453125 -0.375 C 34.453125 0.34375 34.175781 0.703125 33.625 0.703125 C 33.207031 0.703125 32.765625 0.382812 32.296875 -0.25 L 9.96875 -38.203125 C 9.832031 -38.453125 9.640625 -38.578125 9.390625 -38.578125 C 9.097656 -38.578125 8.953125 -38.363281 8.953125 -37.9375 L 8.953125 -3.171875 C 8.953125 -2.578125 9.109375 -2.066406 9.421875 -1.640625 C 9.742188 -1.222656 10.132812 -1.015625 10.59375 -1.015625 L 14.78125 -1.015625 C 15.082031 -0.929688 15.234375 -0.738281 15.234375 -0.4375 C 15.234375 -0.144531 15.082031 0.0195312 14.78125 0.0625 L 8.375 -0.0625 Z M 2.53125 0.0625"/></g></g></g><g fill="#3d3b3a" fill-opacity="1"><g transform="translate(100.298967, 227.592011)"><g/></g></g><g fill="#3d3b3a" fill-opacity="1"><g transform="translate(117.178641, 227.592011)"><g/></g></g><g fill="#3d3b3a" fill-opacity="1"><g transform="translate(134.06068, 227.592011)"><g><path d="M 3.8125 -15.796875 C 3.851562 -16.097656 4.019531 -16.25 4.3125 -16.25 C 4.613281 -16.25 4.785156 -16.097656 4.828125 -15.796875 L 4.953125 -13.265625 C 5.078125 -11.109375 5.59375 -9.015625 6.5 -6.984375 C 7.414062 -4.953125 8.71875 -3.289062 10.40625 -2 C 12.09375 -0.707031 14.125 -0.0625 16.5 -0.0625 C 19.25 -0.0625 21.332031 -0.976562 22.75 -2.8125 C 24.164062 -4.65625 24.875 -7.019531 24.875 -9.90625 C 24.875 -12.101562 24.382812 -13.8125 23.40625 -15.03125 C 22.4375 -16.257812 21.019531 -17.320312 19.15625 -18.21875 L 12.5625 -21.25 C 9.5625 -22.695312 7.394531 -24.488281 6.0625 -26.625 C 4.726562 -28.757812 4.0625 -31.242188 4.0625 -34.078125 C 4.0625 -36.523438 4.585938 -38.703125 5.640625 -40.609375 C 6.703125 -42.515625 8.140625 -44.003906 9.953125 -45.078125 C 11.773438 -46.160156 13.804688 -46.703125 16.046875 -46.703125 C 17.785156 -46.703125 19.34375 -46.425781 20.71875 -45.875 C 22.09375 -45.320312 23.375 -44.75 24.5625 -44.15625 C 25.28125 -43.738281 25.910156 -43.53125 26.453125 -43.53125 C 27.171875 -43.53125 27.53125 -43.992188 27.53125 -44.921875 L 27.53125 -45.875 C 27.582031 -46.175781 27.734375 -46.328125 27.984375 -46.328125 C 28.148438 -46.328125 28.296875 -46.195312 28.421875 -45.9375 L 28.421875 -31.15625 C 28.335938 -30.863281 28.148438 -30.71875 27.859375 -30.71875 C 27.597656 -30.71875 27.425781 -30.863281 27.34375 -31.15625 L 27.28125 -32.734375 C 27.195312 -34.859375 26.6875 -36.910156 25.75 -38.890625 C 24.820312 -40.878906 23.554688 -42.519531 21.953125 -43.8125 C 20.347656 -45.101562 18.425781 -45.75 16.1875 -45.75 C 14.65625 -45.75 13.378906 -45.335938 12.359375 -44.515625 C 11.347656 -43.691406 10.578125 -42.625 10.046875 -41.3125 C 9.523438 -40 9.265625 -38.582031 9.265625 -37.0625 C 9.265625 -34.769531 9.675781 -33.039062 10.5 -31.875 C 11.320312 -30.71875 12.644531 -29.71875 14.46875 -28.875 L 21.125 -25.703125 C 24.46875 -24.179688 26.796875 -22.335938 28.109375 -20.171875 C 29.421875 -18.015625 30.078125 -15.457031 30.078125 -12.5 C 30.078125 -9.664062 29.472656 -7.242188 28.265625 -5.234375 C 27.054688 -3.222656 25.4375 -1.695312 23.40625 -0.65625 C 21.382812 0.375 19.144531 0.890625 16.6875 0.890625 C 14.957031 0.890625 13.328125 0.613281 11.796875 0.0625 C 10.273438 -0.488281 8.878906 -1.082031 7.609375 -1.71875 C 7.273438 -1.882812 6.9375 -2.019531 6.59375 -2.125 C 6.257812 -2.226562 5.988281 -2.28125 5.78125 -2.28125 C 5.007812 -2.28125 4.625 -1.835938 4.625 -0.953125 L 4.625 0.1875 C 4.625 0.488281 4.5 0.640625 4.25 0.640625 C 4 0.640625 3.851562 0.488281 3.8125 0.1875 Z M 3.8125 -15.796875"/></g></g></g><g fill="#3d3b3a" fill-opacity="1"><g transform="translate(169.723609, 227.592011)"><g><path d="M 9.265625 0.0625 C 8.960938 0.0195312 8.8125 -0.144531 8.8125 -0.4375 C 8.8125 -0.695312 8.960938 -0.890625 9.265625 -1.015625 L 14.015625 -1.015625 C 14.316406 -1.015625 14.46875 -1.160156 14.46875 -1.453125 L 14.46875 -44.359375 C 14.46875 -44.648438 14.34375 -44.796875 14.09375 -44.796875 L 10.65625 -44.671875 C 8.84375 -44.628906 7.425781 -44.128906 6.40625 -43.171875 C 5.394531 -42.222656 4.664062 -41.007812 4.21875 -39.53125 C 3.769531 -38.050781 3.503906 -36.460938 3.421875 -34.765625 L 3.234375 -32.046875 C 3.191406 -31.742188 3.023438 -31.59375 2.734375 -31.59375 C 2.429688 -31.59375 2.257812 -31.742188 2.21875 -32.046875 L 2.53125 -45.5 C 2.53125 -45.789062 2.660156 -45.9375 2.921875 -45.9375 L 17.953125 -45.75 L 32.9375 -45.9375 C 33.1875 -45.9375 33.3125 -45.789062 33.3125 -45.5 L 33.625 -32.046875 C 33.5 -31.742188 33.3125 -31.59375 33.0625 -31.59375 C 32.84375 -31.59375 32.671875 -31.742188 32.546875 -32.046875 L 32.421875 -34.765625 C 32.335938 -36.460938 32.0625 -38.050781 31.59375 -39.53125 C 31.132812 -41.007812 30.394531 -42.222656 29.375 -43.171875 C 28.363281 -44.128906 26.96875 -44.628906 25.1875 -44.671875 L 21.765625 -44.796875 C 21.460938 -44.796875 21.3125 -44.648438 21.3125 -44.359375 L 21.3125 -1.453125 C 21.3125 -1.160156 21.460938 -1.015625 21.765625 -1.015625 L 26.515625 -1.015625 C 26.816406 -0.890625 26.96875 -0.695312 26.96875 -0.4375 C 26.96875 -0.144531 26.816406 0.0195312 26.515625 0.0625 L 17.953125 -0.0625 Z M 9.265625 0.0625"/></g></g></g><g fill="#3d3b3a" fill-opacity="1"><g transform="translate(207.988283, 227.592011)"><g><path d="M -0.4375 0.0625 C -0.738281 0.0195312 -0.890625 -0.144531 -0.890625 -0.4375 C -0.890625 -0.738281 -0.738281 -0.929688 -0.4375 -1.015625 L 1.90625 -1.015625 C 2.957031 -1.015625 3.675781 -1.671875 4.0625 -2.984375 L 16.8125 -45.5625 C 16.976562 -46.113281 17.296875 -46.390625 17.765625 -46.390625 C 18.191406 -46.390625 18.488281 -46.113281 18.65625 -45.5625 L 31.734375 -1.515625 C 31.859375 -1.179688 32.046875 -1.015625 32.296875 -1.015625 L 35.46875 -1.015625 C 35.71875 -0.890625 35.84375 -0.695312 35.84375 -0.4375 C 35.84375 -0.144531 35.71875 0.0195312 35.46875 0.0625 L 28.296875 -0.0625 L 19.484375 0.0625 C 19.179688 -0.0195312 19.03125 -0.1875 19.03125 -0.4375 C 19.03125 -0.695312 19.179688 -0.890625 19.484375 -1.015625 L 24.421875 -1.015625 C 24.679688 -1.015625 24.8125 -1.140625 24.8125 -1.390625 C 24.8125 -1.472656 24.769531 -1.695312 24.6875 -2.0625 C 24.601562 -2.425781 24.515625 -2.710938 24.421875 -2.921875 L 20.5 -16.75 L 9.390625 -16.75 L 5.578125 -4.0625 C 5.492188 -3.71875 5.410156 -3.421875 5.328125 -3.171875 C 5.242188 -2.921875 5.203125 -2.6875 5.203125 -2.46875 C 5.203125 -2.050781 5.347656 -1.703125 5.640625 -1.421875 C 5.941406 -1.148438 6.300781 -1.015625 6.71875 -1.015625 L 10.34375 -1.015625 C 10.632812 -0.890625 10.78125 -0.695312 10.78125 -0.4375 C 10.78125 -0.144531 10.632812 0.0195312 10.34375 0.0625 L 4.375 -0.0625 Z M 20.171875 -17.828125 L 15.03125 -35.78125 L 9.703125 -17.828125 Z M 20.171875 -17.828125"/></g></g></g><g fill="#3d3b3a" fill-opacity="1"><g transform="translate(245.935664, 227.592011)"><g><path d="M 3.8125 -15.796875 C 3.851562 -16.097656 4.019531 -16.25 4.3125 -16.25 C 4.613281 -16.25 4.785156 -16.097656 4.828125 -15.796875 L 4.953125 -13.265625 C 5.078125 -11.109375 5.59375 -9.015625 6.5 -6.984375 C 7.414062 -4.953125 8.71875 -3.289062 10.40625 -2 C 12.09375 -0.707031 14.125 -0.0625 16.5 -0.0625 C 19.25 -0.0625 21.332031 -0.976562 22.75 -2.8125 C 24.164062 -4.65625 24.875 -7.019531 24.875 -9.90625 C 24.875 -12.101562 24.382812 -13.8125 23.40625 -15.03125 C 22.4375 -16.257812 21.019531 -17.320312 19.15625 -18.21875 L 12.5625 -21.25 C 9.5625 -22.695312 7.394531 -24.488281 6.0625 -26.625 C 4.726562 -28.757812 4.0625 -31.242188 4.0625 -34.078125 C 4.0625 -36.523438 4.585938 -38.703125 5.640625 -40.609375 C 6.703125 -42.515625 8.140625 -44.003906 9.953125 -45.078125 C 11.773438 -46.160156 13.804688 -46.703125 16.046875 -46.703125 C 17.785156 -46.703125 19.34375 -46.425781 20.71875 -45.875 C 22.09375 -45.320312 23.375 -44.75 24.5625 -44.15625 C 25.28125 -43.738281 25.910156 -43.53125 26.453125 -43.53125 C 27.171875 -43.53125 27.53125 -43.992188 27.53125 -44.921875 L 27.53125 -45.875 C 27.582031 -46.175781 27.734375 -46.328125 27.984375 -46.328125 C 28.148438 -46.328125 28.296875 -46.195312 28.421875 -45.9375 L 28.421875 -31.15625 C 28.335938 -30.863281 28.148438 -30.71875 27.859375 -30.71875 C 27.597656 -30.71875 27.425781 -30.863281 27.34375 -31.15625 L 27.28125 -32.734375 C 27.195312 -34.859375 26.6875 -36.910156 25.75 -38.890625 C 24.820312 -40.878906 23.554688 -42.519531 21.953125 -43.8125 C 20.347656 -45.101562 18.425781 -45.75 16.1875 -45.75 C 14.65625 -45.75 13.378906 -45.335938 12.359375 -44.515625 C 11.347656 -43.691406 10.578125 -42.625 10.046875 -41.3125 C 9.523438 -40 9.265625 -38.582031 9.265625 -37.0625 C 9.265625 -34.769531 9.675781 -33.039062 10.5 -31.875 C 11.320312 -30.71875 12.644531 -29.71875 14.46875 -28.875 L 21.125 -25.703125 C 24.46875 -24.179688 26.796875 -22.335938 28.109375 -20.171875 C 29.421875 -18.015625 30.078125 -15.457031 30.078125 -12.5 C 30.078125 -9.664062 29.472656 -7.242188 28.265625 -5.234375 C 27.054688 -3.222656 25.4375 -1.695312 23.40625 -0.65625 C 21.382812 0.375 19.144531 0.890625 16.6875 0.890625 C 14.957031 0.890625 13.328125 0.613281 11.796875 0.0625 C 10.273438 -0.488281 8.878906 -1.082031 7.609375 -1.71875 C 7.273438 -1.882812 6.9375 -2.019531 6.59375 -2.125 C 6.257812 -2.226562 5.988281 -2.28125 5.78125 -2.28125 C 5.007812 -2.28125 4.625 -1.835938 4.625 -0.953125 L 4.625 0.1875 C 4.625 0.488281 4.5 0.640625 4.25 0.640625 C 4 0.640625 3.851562 0.488281 3.8125 0.1875 Z M 3.8125 -15.796875"/></g></g></g><g fill="#3d3b3a" fill-opacity="1"><g transform="translate(281.598588, 227.592011)"><g><path d="M 10.15625 0.0625 C 9.894531 0.0195312 9.765625 -0.144531 9.765625 -0.4375 C 9.765625 -0.738281 9.894531 -0.929688 10.15625 -1.015625 L 14.34375 -1.015625 C 14.632812 -1.015625 14.78125 -1.160156 14.78125 -1.453125 L 14.78125 -20.3125 L 4.4375 -44.359375 C 4.3125 -44.648438 4.101562 -44.796875 3.8125 -44.796875 L 0.578125 -44.796875 C 0.273438 -44.921875 0.125 -45.09375 0.125 -45.3125 C 0.125 -45.5625 0.273438 -45.75 0.578125 -45.875 L 8.4375 -45.75 L 16.9375 -45.875 C 17.195312 -45.75 17.328125 -45.5625 17.328125 -45.3125 C 17.328125 -45.09375 17.195312 -44.921875 16.9375 -44.796875 L 12.1875 -44.796875 C 11.882812 -44.796875 11.734375 -44.648438 11.734375 -44.359375 C 11.734375 -44.222656 11.785156 -44.03125 11.890625 -43.78125 C 12.003906 -43.53125 12.144531 -43.191406 12.3125 -42.765625 L 20.8125 -22.40625 L 29.25 -42.0625 C 29.375 -42.40625 29.488281 -42.679688 29.59375 -42.890625 C 29.707031 -43.109375 29.765625 -43.300781 29.765625 -43.46875 C 29.765625 -43.882812 29.625 -44.207031 29.34375 -44.4375 C 29.070312 -44.675781 28.765625 -44.796875 28.421875 -44.796875 L 24.625 -44.796875 C 24.320312 -44.921875 24.171875 -45.09375 24.171875 -45.3125 C 24.171875 -45.5625 24.320312 -45.75 24.625 -45.875 L 30.578125 -45.75 L 35.71875 -45.875 C 36.019531 -45.75 36.171875 -45.5625 36.171875 -45.3125 C 36.171875 -45.09375 36.019531 -44.921875 35.71875 -44.796875 L 33.1875 -44.796875 C 32.125 -44.796875 31.382812 -44.269531 30.96875 -43.21875 L 21.578125 -21.390625 L 21.578125 -1.453125 C 21.578125 -1.160156 21.722656 -1.015625 22.015625 -1.015625 L 26.140625 -1.015625 C 26.441406 -0.890625 26.59375 -0.695312 26.59375 -0.4375 C 26.59375 -0.144531 26.441406 0.0195312 26.140625 0.0625 L 18.140625 -0.0625 Z M 10.15625 0.0625"/></g></g></g><g fill="#3d3b3a" fill-opacity="1"><g transform="translate(320.053618, 227.592011)"><g><path d="M -0.4375 0.0625 C -0.738281 0.0195312 -0.890625 -0.144531 -0.890625 -0.4375 C -0.890625 -0.738281 -0.738281 -0.929688 -0.4375 -1.015625 L 1.90625 -1.015625 C 2.957031 -1.015625 3.675781 -1.671875 4.0625 -2.984375 L 16.8125 -45.5625 C 16.976562 -46.113281 17.296875 -46.390625 17.765625 -46.390625 C 18.191406 -46.390625 18.488281 -46.113281 18.65625 -45.5625 L 31.734375 -1.515625 C 31.859375 -1.179688 32.046875 -1.015625 32.296875 -1.015625 L 35.46875 -1.015625 C 35.71875 -0.890625 35.84375 -0.695312 35.84375 -0.4375 C 35.84375 -0.144531 35.71875 0.0195312 35.46875 0.0625 L 28.296875 -0.0625 L 19.484375 0.0625 C 19.179688 -0.0195312 19.03125 -0.1875 19.03125 -0.4375 C 19.03125 -0.695312 19.179688 -0.890625 19.484375 -1.015625 L 24.421875 -1.015625 C 24.679688 -1.015625 24.8125 -1.140625 24.8125 -1.390625 C 24.8125 -1.472656 24.769531 -1.695312 24.6875 -2.0625 C 24.601562 -2.425781 24.515625 -2.710938 24.421875 -2.921875 L 20.5 -16.75 L 9.390625 -16.75 L 5.578125 -4.0625 C 5.492188 -3.71875 5.410156 -3.421875 5.328125 -3.171875 C 5.242188 -2.921875 5.203125 -2.6875 5.203125 -2.46875 C 5.203125 -2.050781 5.347656 -1.703125 5.640625 -1.421875 C 5.941406 -1.148438 6.300781 -1.015625 6.71875 -1.015625 L 10.34375 -1.015625 C 10.632812 -0.890625 10.78125 -0.695312 10.78125 -0.4375 C 10.78125 -0.144531 10.632812 0.0195312 10.34375 0.0625 L 4.375 -0.0625 Z M 20.171875 -17.828125 L 15.03125 -35.78125 L 9.703125 -17.828125 Z M 20.171875 -17.828125"/></g></g></g><g fill="#3d3b3a" fill-opacity="1"><g transform="translate(103.136497, 245.563181)"><g><path d="M 1.0625 0 L 1.0625 -7.265625 L 1.90625 -7.265625 L 4.765625 -2.953125 L 7.59375 -7.265625 L 8.4375 -7.265625 L 8.4375 0 L 7.53125 0 L 7.53125 -5.546875 L 5.125 -1.9375 L 4.375 -1.9375 L 1.96875 -5.5625 L 1.96875 0 Z M 1.0625 0"/></g></g></g><g fill="#3d3b3a" fill-opacity="1"><g transform="translate(115.15772, 245.563181)"><g><path d="M 0.171875 0 L 3.171875 -7.265625 L 4.015625 -7.265625 L 7 0 L 6.03125 0 L 5.359375 -1.65625 L 1.8125 -1.65625 L 1.15625 0 Z M 2.171875 -2.5 L 5.015625 -2.5 L 3.59375 -5.984375 Z M 2.171875 -2.5"/></g></g></g><g fill="#3d3b3a" fill-opacity="1"><g transform="translate(124.855826, 245.563181)"><g><path d="M 1.0625 0 L 1.0625 -7.265625 L 1.921875 -7.265625 L 5.9375 -1.578125 L 5.9375 -7.265625 L 6.828125 -7.265625 L 6.828125 0 L 5.96875 0 L 1.953125 -5.6875 L 1.953125 0 Z M 1.0625 0"/></g></g></g><g fill="#3d3b3a" fill-opacity="1"><g transform="translate(135.259163, 245.563181)"><g><path d="M 1.0625 0 L 1.0625 -7.265625 L 1.96875 -7.265625 L 1.96875 0 Z M 1.0625 0"/></g></g></g><g fill="#3d3b3a" fill-opacity="1"><g transform="translate(140.808854, 245.563181)"><g><path d="M 4.28125 0.140625 C 3.738281 0.140625 3.242188 0.046875 2.796875 -0.140625 C 2.347656 -0.328125 1.957031 -0.585938 1.625 -0.921875 C 1.300781 -1.265625 1.050781 -1.664062 0.875 -2.125 C 0.695312 -2.582031 0.609375 -3.082031 0.609375 -3.625 C 0.609375 -4.175781 0.695312 -4.679688 0.875 -5.140625 C 1.050781 -5.597656 1.300781 -5.992188 1.625 -6.328125 C 1.957031 -6.671875 2.347656 -6.929688 2.796875 -7.109375 C 3.242188 -7.296875 3.738281 -7.390625 4.28125 -7.390625 C 4.851562 -7.390625 5.378906 -7.285156 5.859375 -7.078125 C 6.335938 -6.867188 6.75 -6.566406 7.09375 -6.171875 C 7.4375 -5.785156 7.6875 -5.328125 7.84375 -4.796875 L 6.875 -4.796875 C 6.6875 -5.316406 6.359375 -5.726562 5.890625 -6.03125 C 5.429688 -6.332031 4.90625 -6.484375 4.3125 -6.484375 C 3.769531 -6.484375 3.289062 -6.363281 2.875 -6.125 C 2.457031 -5.882812 2.128906 -5.546875 1.890625 -5.109375 C 1.648438 -4.679688 1.53125 -4.1875 1.53125 -3.625 C 1.53125 -3.070312 1.648438 -2.578125 1.890625 -2.140625 C 2.128906 -1.710938 2.457031 -1.378906 2.875 -1.140625 C 3.289062 -0.898438 3.769531 -0.78125 4.3125 -0.78125 C 4.925781 -0.78125 5.46875 -0.9375 5.9375 -1.25 C 6.414062 -1.570312 6.75 -2.003906 6.9375 -2.546875 L 7.90625 -2.546875 C 7.757812 -2.015625 7.507812 -1.546875 7.15625 -1.140625 C 6.8125 -0.742188 6.390625 -0.429688 5.890625 -0.203125 C 5.398438 0.0234375 4.863281 0.140625 4.28125 0.140625 Z M 4.28125 0.140625"/></g></g></g><g fill="#3d3b3a" fill-opacity="1"><g transform="translate(151.792967, 245.563181)"><g><path d="M 3.78125 0.125 C 2.894531 0.125 2.203125 -0.144531 1.703125 -0.6875 C 1.210938 -1.238281 0.96875 -1.992188 0.96875 -2.953125 L 0.96875 -7.265625 L 1.875 -7.265625 L 1.875 -3.015625 C 1.875 -2.273438 2.035156 -1.710938 2.359375 -1.328125 C 2.691406 -0.953125 3.164062 -0.765625 3.78125 -0.765625 C 5.039062 -0.765625 5.671875 -1.515625 5.671875 -3.015625 L 5.671875 -7.265625 L 6.59375 -7.265625 L 6.59375 -2.953125 C 6.59375 -1.992188 6.34375 -1.238281 5.84375 -0.6875 C 5.34375 -0.144531 4.65625 0.125 3.78125 0.125 Z M 3.78125 0.125"/></g></g></g><g fill="#3d3b3a" fill-opacity="1"><g transform="translate(161.874805, 245.563181)"><g><path d="M 1.0625 0 L 1.0625 -7.265625 L 3.828125 -7.265625 C 4.328125 -7.265625 4.765625 -7.164062 5.140625 -6.96875 C 5.515625 -6.78125 5.804688 -6.515625 6.015625 -6.171875 C 6.222656 -5.828125 6.328125 -5.410156 6.328125 -4.921875 C 6.328125 -4.335938 6.175781 -3.851562 5.875 -3.46875 C 5.570312 -3.082031 5.148438 -2.828125 4.609375 -2.703125 L 6.4375 0 L 5.34375 0 L 3.5625 -2.609375 L 1.96875 -2.609375 L 1.96875 0 Z M 1.96875 -3.46875 L 3.71875 -3.46875 C 4.257812 -3.46875 4.671875 -3.59375 4.953125 -3.84375 C 5.242188 -4.101562 5.390625 -4.460938 5.390625 -4.921875 C 5.390625 -5.390625 5.242188 -5.75 4.953125 -6 C 4.671875 -6.257812 4.257812 -6.390625 3.71875 -6.390625 L 1.96875 -6.390625 Z M 1.96875 -3.46875"/></g></g></g><g fill="#3d3b3a" fill-opacity="1"><g transform="translate(171.458837, 245.563181)"><g><path d="M 1.0625 0 L 1.0625 -7.265625 L 5.46875 -7.265625 L 5.46875 -6.40625 L 1.96875 -6.40625 L 1.96875 -4.125 L 5.203125 -4.125 L 5.203125 -3.28125 L 1.96875 -3.28125 L 1.96875 -0.84375 L 5.578125 -0.84375 L 5.578125 0 Z M 1.0625 0"/></g></g></g><g fill="#3d3b3a" fill-opacity="1"><g transform="translate(180.23392, 245.563181)"><g/></g></g><g fill="#3d3b3a" fill-opacity="1"><g transform="translate(185.32729, 245.563181)"><g><path d="M 3.03125 0.140625 C 2.257812 0.140625 1.65625 -0.03125 1.21875 -0.375 C 0.78125 -0.726562 0.5625 -1.210938 0.5625 -1.828125 C 0.5625 -2.265625 0.679688 -2.644531 0.921875 -2.96875 C 1.160156 -3.300781 1.53125 -3.585938 2.03125 -3.828125 C 1.75 -4.140625 1.523438 -4.445312 1.359375 -4.75 C 1.203125 -5.050781 1.125 -5.363281 1.125 -5.6875 C 1.125 -6.019531 1.210938 -6.316406 1.390625 -6.578125 C 1.566406 -6.835938 1.8125 -7.035156 2.125 -7.171875 C 2.445312 -7.316406 2.816406 -7.390625 3.234375 -7.390625 C 3.660156 -7.390625 4.03125 -7.3125 4.34375 -7.15625 C 4.664062 -7.007812 4.914062 -6.800781 5.09375 -6.53125 C 5.28125 -6.269531 5.375 -5.960938 5.375 -5.609375 C 5.375 -4.691406 4.753906 -3.992188 3.515625 -3.515625 L 5.140625 -1.875 C 5.390625 -2.320312 5.519531 -2.867188 5.53125 -3.515625 L 6.40625 -3.515625 C 6.382812 -2.566406 6.175781 -1.800781 5.78125 -1.21875 L 6.96875 0 L 5.796875 0 L 5.234375 -0.578125 C 4.660156 -0.0976562 3.925781 0.140625 3.03125 0.140625 Z M 1.4375 -1.84375 C 1.4375 -1.488281 1.578125 -1.207031 1.859375 -1 C 2.148438 -0.800781 2.546875 -0.703125 3.046875 -0.703125 C 3.671875 -0.703125 4.1875 -0.867188 4.59375 -1.203125 L 2.640625 -3.203125 C 1.835938 -2.878906 1.4375 -2.425781 1.4375 -1.84375 Z M 1.984375 -5.703125 C 1.984375 -5.503906 2.050781 -5.285156 2.1875 -5.046875 C 2.320312 -4.816406 2.554688 -4.523438 2.890625 -4.171875 C 3.460938 -4.378906 3.878906 -4.597656 4.140625 -4.828125 C 4.398438 -5.054688 4.53125 -5.316406 4.53125 -5.609375 C 4.53125 -5.910156 4.410156 -6.148438 4.171875 -6.328125 C 3.929688 -6.503906 3.617188 -6.59375 3.234375 -6.59375 C 2.847656 -6.59375 2.539062 -6.507812 2.3125 -6.34375 C 2.09375 -6.1875 1.984375 -5.972656 1.984375 -5.703125 Z M 1.984375 -5.703125"/></g></g></g><g fill="#3d3b3a" fill-opacity="1"><g transform="translate(195.201704, 245.563181)"><g/></g></g><g fill="#3d3b3a" fill-opacity="1"><g transform="translate(200.295068, 245.563181)"><g><path d="M 1.0625 0 L 1.0625 -7.265625 L 3.515625 -7.265625 C 4.066406 -7.265625 4.539062 -7.160156 4.9375 -6.953125 C 5.34375 -6.753906 5.65625 -6.472656 5.875 -6.109375 C 6.101562 -5.753906 6.21875 -5.328125 6.21875 -4.828125 C 6.21875 -4.328125 6.101562 -3.894531 5.875 -3.53125 C 5.65625 -3.164062 5.34375 -2.882812 4.9375 -2.6875 C 4.539062 -2.488281 4.066406 -2.390625 3.515625 -2.390625 L 1.96875 -2.390625 L 1.96875 0 Z M 1.96875 -3.234375 L 3.5 -3.234375 C 4.6875 -3.234375 5.28125 -3.757812 5.28125 -4.8125 C 5.28125 -5.863281 4.6875 -6.390625 3.5 -6.390625 L 1.96875 -6.390625 Z M 1.96875 -3.234375"/></g></g></g><g fill="#3d3b3a" fill-opacity="1"><g transform="translate(209.443509, 245.563181)"><g><path d="M 1.0625 0 L 1.0625 -7.265625 L 5.46875 -7.265625 L 5.46875 -6.40625 L 1.96875 -6.40625 L 1.96875 -4.125 L 5.203125 -4.125 L 5.203125 -3.28125 L 1.96875 -3.28125 L 1.96875 -0.84375 L 5.578125 -0.84375 L 5.578125 0 Z M 1.0625 0"/></g></g></g><g fill="#3d3b3a" fill-opacity="1"><g transform="translate(218.218586, 245.563181)"><g><path d="M 1.0625 0 L 1.0625 -7.265625 L 3.5625 -7.265625 C 4.3125 -7.265625 4.960938 -7.109375 5.515625 -6.796875 C 6.078125 -6.492188 6.515625 -6.066406 6.828125 -5.515625 C 7.140625 -4.972656 7.296875 -4.34375 7.296875 -3.625 C 7.296875 -2.914062 7.140625 -2.285156 6.828125 -1.734375 C 6.515625 -1.191406 6.078125 -0.765625 5.515625 -0.453125 C 4.960938 -0.148438 4.3125 0 3.5625 0 Z M 1.96875 -0.875 L 3.5625 -0.875 C 4.125 -0.875 4.613281 -0.988281 5.03125 -1.21875 C 5.445312 -1.445312 5.769531 -1.769531 6 -2.1875 C 6.238281 -2.601562 6.359375 -3.082031 6.359375 -3.625 C 6.359375 -4.1875 6.238281 -4.671875 6 -5.078125 C 5.757812 -5.492188 5.425781 -5.816406 5 -6.046875 C 4.582031 -6.273438 4.09375 -6.390625 3.53125 -6.390625 L 1.96875 -6.390625 Z M 1.96875 -0.875"/></g></g></g><g fill="#3d3b3a" fill-opacity="1"><g transform="translate(228.632285, 245.563181)"><g><path d="M 1.0625 0 L 1.0625 -7.265625 L 1.96875 -7.265625 L 1.96875 0 Z M 1.0625 0"/></g></g></g><g fill="#3d3b3a" fill-opacity="1"><g transform="translate(234.181972, 245.563181)"><g><path d="M 4.28125 0.140625 C 3.738281 0.140625 3.242188 0.046875 2.796875 -0.140625 C 2.347656 -0.328125 1.957031 -0.585938 1.625 -0.921875 C 1.300781 -1.265625 1.050781 -1.664062 0.875 -2.125 C 0.695312 -2.582031 0.609375 -3.082031 0.609375 -3.625 C 0.609375 -4.175781 0.695312 -4.679688 0.875 -5.140625 C 1.050781 -5.597656 1.300781 -5.992188 1.625 -6.328125 C 1.957031 -6.671875 2.347656 -6.929688 2.796875 -7.109375 C 3.242188 -7.296875 3.738281 -7.390625 4.28125 -7.390625 C 4.851562 -7.390625 5.378906 -7.285156 5.859375 -7.078125 C 6.335938 -6.867188 6.75 -6.566406 7.09375 -6.171875 C 7.4375 -5.785156 7.6875 -5.328125 7.84375 -4.796875 L 6.875 -4.796875 C 6.6875 -5.316406 6.359375 -5.726562 5.890625 -6.03125 C 5.429688 -6.332031 4.90625 -6.484375 4.3125 -6.484375 C 3.769531 -6.484375 3.289062 -6.363281 2.875 -6.125 C 2.457031 -5.882812 2.128906 -5.546875 1.890625 -5.109375 C 1.648438 -4.679688 1.53125 -4.1875 1.53125 -3.625 C 1.53125 -3.070312 1.648438 -2.578125 1.890625 -2.140625 C 2.128906 -1.710938 2.457031 -1.378906 2.875 -1.140625 C 3.289062 -0.898438 3.769531 -0.78125 4.3125 -0.78125 C 4.925781 -0.78125 5.46875 -0.9375 5.9375 -1.25 C 6.414062 -1.570312 6.75 -2.003906 6.9375 -2.546875 L 7.90625 -2.546875 C 7.757812 -2.015625 7.507812 -1.546875 7.15625 -1.140625 C 6.8125 -0.742188 6.390625 -0.429688 5.890625 -0.203125 C 5.398438 0.0234375 4.863281 0.140625 4.28125 0.140625 Z M 4.28125 0.140625"/></g></g></g><g fill="#3d3b3a" fill-opacity="1"><g transform="translate(245.166079, 245.563181)"><g><path d="M 3.78125 0.125 C 2.894531 0.125 2.203125 -0.144531 1.703125 -0.6875 C 1.210938 -1.238281 0.96875 -1.992188 0.96875 -2.953125 L 0.96875 -7.265625 L 1.875 -7.265625 L 1.875 -3.015625 C 1.875 -2.273438 2.035156 -1.710938 2.359375 -1.328125 C 2.691406 -0.953125 3.164062 -0.765625 3.78125 -0.765625 C 5.039062 -0.765625 5.671875 -1.515625 5.671875 -3.015625 L 5.671875 -7.265625 L 6.59375 -7.265625 L 6.59375 -2.953125 C 6.59375 -1.992188 6.34375 -1.238281 5.84375 -0.6875 C 5.34375 -0.144531 4.65625 0.125 3.78125 0.125 Z M 3.78125 0.125"/></g></g></g><g fill="#3d3b3a" fill-opacity="1"><g transform="translate(255.247911, 245.563181)"><g><path d="M 1.0625 0 L 1.0625 -7.265625 L 3.828125 -7.265625 C 4.328125 -7.265625 4.765625 -7.164062 5.140625 -6.96875 C 5.515625 -6.78125 5.804688 -6.515625 6.015625 -6.171875 C 6.222656 -5.828125 6.328125 -5.410156 6.328125 -4.921875 C 6.328125 -4.335938 6.175781 -3.851562 5.875 -3.46875 C 5.570312 -3.082031 5.148438 -2.828125 4.609375 -2.703125 L 6.4375 0 L 5.34375 0 L 3.5625 -2.609375 L 1.96875 -2.609375 L 1.96875 0 Z M 1.96875 -3.46875 L 3.71875 -3.46875 C 4.257812 -3.46875 4.671875 -3.59375 4.953125 -3.84375 C 5.242188 -4.101562 5.390625 -4.460938 5.390625 -4.921875 C 5.390625 -5.390625 5.242188 -5.75 4.953125 -6 C 4.671875 -6.257812 4.257812 -6.390625 3.71875 -6.390625 L 1.96875 -6.390625 Z M 1.96875 -3.46875"/></g></g></g><g fill="#3d3b3a" fill-opacity="1"><g transform="translate(264.831937, 245.563181)"><g><path d="M 1.0625 0 L 1.0625 -7.265625 L 5.46875 -7.265625 L 5.46875 -6.40625 L 1.96875 -6.40625 L 1.96875 -4.125 L 5.203125 -4.125 L 5.203125 -3.28125 L 1.96875 -3.28125 L 1.96875 -0.84375 L 5.578125 -0.84375 L 5.578125 0 Z M 1.0625 0"/></g></g></g></svg>